<?xml version="1.0" standalone="no"?><!DOCTYPE svg PUBLIC "-//W3C//DTD SVG 1.1//EN" "http://www.w3.org/Graphics/SVG/1.1/DTD/svg11.dtd"><svg t="1581915159608" class="icon" viewBox="0 0 1024 1024" version="1.1" xmlns="http://www.w3.org/2000/svg" p-id="2021" xmlns:xlink="http://www.w3.org/1999/xlink" width="200" height="200"><defs><style type="text/css"></style></defs><path d="M336 561.166l352 0c8.848 0 16-10.766 16-24.083S696.848 513 688 513L336 513c-8.849 0-16 10.766-16 24.083S327.152 561.166 336 561.166z" p-id="2022" fill="#1890ff"></path><path d="M512 928c26.512 0 48-21.504 48-48s-21.488-48-48-48c-26.513 0-48 21.504-48 48S485.488 928 512 928z" p-id="2023" fill="#1890ff"></path><path d="M640 928c26.512 0 48-21.504 48-48s-21.488-48-48-48c-26.513 0-48 21.504-48 48S613.488 928 640 928z" p-id="2024" fill="#1890ff"></path><path d="M384 928c26.512 0 48-21.504 48-48s-21.488-48-48-48c-26.513 0-48 21.504-48 48S357.488 928 384 928z" p-id="2025" fill="#1890ff"></path><path d="M768 0 256 0c-35.376 0-64 28.624-64 64l0 896c0 35.376 28.624 64 64 64l512 0c35.375 0 64-28.624 64-64L832 64C832 28.624 803.375 0 768 0zM262.333 92.833c0-14.536 12.428-26.333 27.741-26.333l443.852 0c15.313 0 27.741 11.797 27.741 26.333l0 105.333L262.333 198.166 262.333 92.833zM761.667 943.255c0 12.8-12.429 23.189-27.741 23.189L290.074 966.444c-15.313 0-27.741-10.39-27.741-23.189L262.333 688.167l499.334 0L761.667 943.255zM761.667 614.5 262.333 614.5 262.333 462.833l499.334 0L761.667 614.5zM762.667 411.352 263.333 411.352 263.333 259.686l499.334 0L762.667 411.352z" p-id="2026" fill="#1890ff"></path><path d="M337 358.166l352 0c8.848 0 16-10.766 16-24.083 0-13.318-7.152-24.083-16-24.083L337 310c-8.849 0-16 10.766-16 24.083C321 347.4 328.152 358.166 337 358.166z" p-id="2027" fill="#1890ff"></path><path d="M337 154.436l352 0c8.848 0 16-10.766 16-24.083 0-13.318-7.152-24.083-16-24.083L337 106.27c-8.849 0-16 10.766-16 24.083C321 143.67 328.152 154.436 337 154.436z" p-id="2028" fill="#1890ff"></path></svg>
