<?xml version="1.0" standalone="no"?><!DOCTYPE svg PUBLIC "-//W3C//DTD SVG 1.1//EN" "http://www.w3.org/Graphics/SVG/1.1/DTD/svg11.dtd"><svg t="1581907346917" class="icon" viewBox="0 0 1024 1024" version="1.1" xmlns="http://www.w3.org/2000/svg" p-id="2141" xmlns:xlink="http://www.w3.org/1999/xlink" width="200" height="200"><defs><style type="text/css"></style></defs><path d="M934.506 512c0-55.115-10.732-108.607-31.895-158.991-20.438-48.659-49.719-92.432-87.029-130.101-37.289-37.648-80.758-67.346-129.203-88.269-50.017-21.601-103.212-32.871-158.103-33.497l-0.077-0.007c-0.407-0.047-1.024-0.119-1.753-0.119-0.314 0-0.631 0.018-0.981 0.055-0.15-0.005-0.306-0.011-0.48-0.018-0.485-0.021-0.97-0.038-1.465-0.038-86.266 0-168.831 26.442-238.768 76.47-33.67 24.084-63.452 53.012-88.519 85.981-25.255 33.216-45.216 69.875-59.331 108.966l-6.375 19.381c-11.942 38.996-17.993 79.403-17.993 120.188 0 55.478 10.868 109.301 32.302 159.975 20.701 48.939 50.332 92.891 88.075 130.634 37.742 37.742 81.694 67.374 130.635 88.074 50.672 21.434 104.495 32.302 159.974 32.302 2.524 0 5.001-0.086 7.463-0.172l0.317-0.010c0.922-0.032 1.841-0.064 2.764-0.090 0.24 0.022 0.484 0.046 0.741 0.071 0.953 0.094 2.031 0.201 3.218 0.201 2.253 0 4.541-0.185 6.989-0.56 81.857-4.222 159.735-32.487 225.236-81.749 64.327-48.378 112.702-113.777 139.907-189.139l6.377-19.349c11.931-38.967 17.975-79.372 17.975-120.187zM709.57 356.768c-12.205-49.298-29.859-94.855-52.497-135.463-20.23-36.289-40.266-61.088-55.643-77.071 116.943 24.675 214.838 103.194 264.489 212.533h-156.349zM692.892 514.474c0 40.341-3.415 79.925-10.154 117.714h-297.939c-7.289-37.939-10.985-77.523-10.985-117.714 0-41.84 3.678-83.089 10.932-122.663h296.268c7.882 39.636 11.878 80.887 11.878 122.663zM598.198 194.773c32.071 43.346 58.512 100.71 74.722 161.995h-280.723c19.392-79.742 48.989-132.868 70.604-163.577 27.781-39.467 52.983-57.133 65.636-57.133 12.675 0 39.913 18.373 69.761 58.716zM410.954 215.307c-23.161 42.15-41.841 91.001-54.109 141.462h-175.728c51.822-114.159 158.657-195.836 281.865-215.854-18.15 19.722-35.991 45.206-52.028 74.393zM167.277 391.811h182.058c-7.001 38.197-10.549 77.097-10.549 115.708 0 42.044 3.798 83.963 11.29 124.67h-182.816c-13.063-38.692-19.684-79.113-19.684-120.188 0-41.033 6.627-81.455 19.701-120.189zM357.661 667.232c12.363 51.247 30.858 100.028 53.568 141.252 16.493 29.941 34.995 55.583 53.964 74.884-124.213-19.399-231.868-101.149-284.061-216.135h176.527zM392.686 667.232h282.706c-15.006 62.201-40.021 119.789-70.682 162.598-32.857 45.873-59.071 58.112-69.381 58.112-10.033 0-36.441-15.502-68.073-58.211-23.008-31.065-54.401-84.276-74.571-162.498zM865.947 667.232c-48.209 106.062-142.921 183.875-255.891 210.591 42.443-48.56 79.019-125.993 99.178-210.591h156.713zM879.733 632.188h-163.088c7.493-41.039 11.29-82.957 11.29-124.67 0-38.759-3.595-77.663-10.688-115.708h162.487c13.092 38.748 19.729 79.17 19.729 120.189s-6.637 81.442-19.729 120.188z" p-id="2142" fill="#1890ff"></path></svg>
